<svg xmlns="http://www.w3.org/2000/svg" viewBox="0 0 1000 1000">
  <style>
    .accTaiko {
      transform: scale(2);
    }
    .accTaiko .body {
      fill: #68c0c0;
      fill: #68c0c0;
    }
    @media (prefers-color-scheme: dark) {
      .accTaiko .body {
        fill: #f84727;
      }
    }
    .accTaiko .rim {
      fill: #fff;
      stroke: #000;
    }
    @media (prefers-color-scheme: dark) {
      .accTaiko .rim {
        fill: #fff;
      }
    }
    @media (prefers-color-scheme: dark) {
      .accTaiko .rim {
        stroke: #000;
      }
    }
    .accTaiko .batter {
      fill: #f84727;
    }
    @media (prefers-color-scheme: dark) {
      .accTaiko .batter {
        fill: #68c0c0;
      }
    }
    .accTaiko .bodyOutline,
    .accTaiko .topOutline {
      stroke: #000;
      fill: none;
    }
    @media (prefers-color-scheme: dark) {
      .accTaiko .bodyOutline,
    .accTaiko .topOutline {
        stroke: #000;
      }
    }


    #rPawUp {
      animation: rPawUp 3s step-end infinite;
    }
    @keyframes rPawUp {
      0%, 31.25%, 43.75%, 81.25% {
        opacity: 1;
      }
      25%, 37.5%, 75% {
        opacity: 0;
      }
    }

    #rPawDown {
      animation: rPawDown 3s step-end infinite;
    }
    @keyframes rPawDown {
      25%, 37.5%, 75% {
        opacity: 1;
      }
      0%, 31.25%, 43.75%, 81.25% {
        opacity: 0;
      }
    }

    #lPawUp {
      animation: lPawUp 3s step-end infinite;
    }
    @keyframes lPawUp {
      6.25%, 18.75%, 56.25%, 68.75% {
        opacity: 1;
      }
      0%, 12.5%, 50%, 62.5% {
        opacity: 0;
      }
    }

    #lPawDown {
      animation: lPawDown 3s step-end infinite;
    }
    @keyframes lPawDown {
      0%, 12.5%, 50%, 62.5% {
        opacity: 1;
      }
      6.25%, 18.75%, 56.25%, 68.75% {
        opacity: 0;
      }
    }

    .lineDraw {
      transform: translate(0, 1000px) scale(0.1, -0.1);
    }

    .tailOutline {
      stroke: #000;
      fill: none;
    }
    @media (prefers-color-scheme: dark) {
      .tailOutline {
        stroke: #fff;
      }
    }

    .lineDraw {
      fill: #000;
    }
    @media (prefers-color-scheme: dark) {
      .lineDraw {
        fill: #fff;
      }
    }

    .toeBean {
      fill: none;
    }

    .pawBg {
      fill: #ffdf4e;
    }

    .impact {
      fill: #b11026;
    }
    @media (prefers-color-scheme: dark) {
      .impact {
        fill: #b11026;
      }
    }

    #face {
      fill: #212a2c;
    }


    text {
      font-family: &quot;Courier New&quot;, Courier, monospace;
    }

    #background {
      fill: #fff;
      width: 100%;
      height: 100%;
    }
    @media (prefers-color-scheme: dark) {
      #background {
        fill: #333;
      }
    }

    #table {
      stroke: #000;
      stroke-width: 10px;
    }
    @media (prefers-color-scheme: dark) {
      #table {
        stroke: #fff;
      }
    }

    #description {
      fill: #1b1817;
      font-size: 2em;
      font-weight: bolder;
      dominant-baseline: middle;
      text-anchor: middle;
    }
    @media (prefers-color-scheme: dark) {
      #description {
        fill: #eee;
      }
    }

    #signature {
      fill: #1b1817;
      transform: translate(760px, 940px);
    }
    @media (prefers-color-scheme: dark) {
      #signature {
        fill: #eee;
      }
    }
    #signature path {
      fill-rule: evenodd;
      stroke: none;
    }
    #signature text {
      font-size: 1.5em;
      font-weight: bolder;
      dominant-baseline: middle;
      text-anchor: start;
    }
  </style>
  <rect id="background"></rect>
  <path
    d="M740.326 570.167C738.007 570.614 736.578 572.961 737.245 575.225L746.174 605.536C746.866 607.884 745.304 610.298 742.877 610.629L729.774 612.417C727.468 612.732 725.916 614.942 726.404 617.218L727.973 624.541C728.295 626.044 729.45 627.23 730.944 627.591L768.2 636.598C770.966 637.266 773.526 634.915 773.094 632.102L767.197 593.738C766.825 591.315 768.699 589.131 771.151 589.131H798.393C800.987 589.131 802.895 586.7 802.279 584.181L793.817 549.562C793.165 546.898 795.327 544.384 798.058 544.628L845.195 548.836C847.107 549.007 848.843 547.787 849.111 545.887C850.161 538.431 850.656 522.984 846.75 514.875C842.118 505.259 832.32 497.246 825.328 491.613C824.192 490.698 822.65 490.473 821.299 491.024L751.269 519.589C749.194 520.435 748.219 522.821 749.107 524.878L764.515 560.558C765.528 562.906 764.109 565.589 761.598 566.072L740.326 570.167Z"
    fill="#ffdf4e"
  ></path>
  <path
    d="M730.944 627.591L768.2 636.598C770.966 637.266 773.526 634.915 773.094 632.102L770.244 613.565L768.517 602.324C768.418 601.683 768.165 601.075 767.78 600.554L760.987 591.364C759.915 589.915 757.664 590.23 757.031 591.917C756.386 593.638 754.071 593.921 753.03 592.407L752.659 591.868C751.499 590.18 748.936 590.422 748.112 592.297L745.205 598.912C744.825 599.776 744.763 600.747 745.03 601.652L746.174 605.536C746.866 607.884 745.304 610.298 742.877 610.629L729.774 612.417C727.468 612.732 725.916 614.942 726.404 617.218L727.973 624.541C728.295 626.044 729.45 627.23 730.944 627.591Z"
    fill="#d6793e"
  ></path>
  <path
    class="tailOutline"
    d="M737.245 575.225L746.174 605.536C746.866 607.884 745.304 610.298 742.877 610.629L729.774 612.417C727.468 612.732 725.916 614.942 726.404 617.218L727.973 624.541C728.295 626.044 729.45 627.23 730.944 627.591L768.2 636.598C770.966 637.266 773.526 634.915 773.094 632.102L767.197 593.738C766.825 591.315 768.699 589.131 771.151 589.131H798.393C800.987 589.131 802.895 586.7 802.279 584.181L793.817 549.562C793.165 546.898 795.327 544.384 798.058 544.628L845.195 548.836C847.107 549.007 848.843 547.787 849.111 545.887C850.161 538.431 850.656 522.984 846.75 514.875C842.118 505.259 832.32 497.246 825.328 491.613C824.192 490.698 822.65 490.473 821.299 491.024L751.269 519.589C749.194 520.435 748.219 522.821 749.107 524.878L764.515 560.558C765.528 562.906 764.109 565.589 761.598 566.072L740.326 570.167C738.007 570.614 736.578 572.961 737.245 575.225Z"
    stroke-width="8"
  ></path>
  <mask id="outlineMask" mask-type="alpha" maskUnits="userSpaceOnUse" x="188" y="324" width="549" height="324">
    <path
      d="M735.275 647.79L188.93 519.399C192.4 514.029 197.795 507.56 205.4 499.6C209 495.8 212 492 212 491.2C212 489.3 238.9 461.5 252.1 449.8C255.6 446.7 259.1 444.1 259.8 444C259.939 444 260.12 444.055 260.335 444.155C259.707 443.144 260.03 442.047 261.4 441.3C262.2 440.9 265.8 437.8 269.6 434.5C294.4 412.4 329.6 388.3 352.6 377.3C361 373.3 387.3 364 390.2 364C390.9 364 392.7 362.3 394.1 360.2C397.7 355.1 425.8 325.7 427.9 324.8C432.6 322.9 437.8 325.7 444.5 333.9C460.2 353.2 465.2 359.9 467.1 363.7C469.7 369.1 470.2 369.4 479 371.5C489.1 373.9 500.2 377.8 520 386C529.1 389.8 545.3 395.8 556 399.5C578.2 407 590.8 412.9 613 425.9C621.5 430.9 633.1 436.8 638.8 439.1L649.1 443.2L660.8 438.2C667.2 435.4 679.6 430.3 688.3 426.9C701.7 421.6 704.4 420.9 706.5 421.8C710.4 423.6 711.4 429.3 711.4 450.5C711.5 472.3 710.8 476.4 704.4 492.7C700.4 503 699.3 507.5 697 523C696.6 526 695.5 530.1 694.5 532.1L692.8 535.7L698.4 543.1C708.8 556.6 725.7 594.2 733 620.2C736.5 632.4 736.8 634.7 736.3 641.2C736.115 643.385 735.738 645.72 735.275 647.79ZM262.82 445.95C262.987 446.035 263.148 446.128 263.302 446.228L263.218 446.303C263.085 446.183 262.952 446.065 262.82 445.95Z"
    ></path>
  </mask>
  <g mask="url(#outlineMask)">
    <path
      d="M735.275 647.79L188.93 519.399C192.4 514.029 197.795 507.56 205.4 499.6C209 495.8 212 492 212 491.2C212 489.3 238.9 461.5 252.1 449.8C255.6 446.7 259.1 444.1 259.8 444C259.939 444 260.12 444.055 260.335 444.155C259.707 443.144 260.03 442.047 261.4 441.3C262.2 440.9 265.8 437.8 269.6 434.5C294.4 412.4 329.6 388.3 352.6 377.3C361 373.3 387.3 364 390.2 364C390.9 364 392.7 362.3 394.1 360.2C397.7 355.1 425.8 325.7 427.9 324.8C432.6 322.9 437.8 325.7 444.5 333.9C460.2 353.2 465.2 359.9 467.1 363.7C469.7 369.1 470.2 369.4 479 371.5C489.1 373.9 500.2 377.8 520 386C529.1 389.8 545.3 395.8 556 399.5C578.2 407 590.8 412.9 613 425.9C621.5 430.9 633.1 436.8 638.8 439.1L649.1 443.2L660.8 438.2C667.2 435.4 679.6 430.3 688.3 426.9C701.7 421.6 704.4 420.9 706.5 421.8C710.4 423.6 711.4 429.3 711.4 450.5C711.5 472.3 710.8 476.4 704.4 492.7C700.4 503 699.3 507.5 697 523C696.6 526 695.5 530.1 694.5 532.1L692.8 535.7L698.4 543.1C708.8 556.6 725.7 594.2 733 620.2C736.5 632.4 736.8 634.7 736.3 641.2C736.115 643.385 735.738 645.72 735.275 647.79ZM262.82 445.95C262.987 446.035 263.148 446.128 263.302 446.228L263.218 446.303C263.085 446.183 262.952 446.065 262.82 445.95Z"
      fill="#ffdf4e"
    ></path>
    <path d="M646 442C646 442 676 416.667 728 415C721.667 484.333 701 544 701 544C692 470 672 453 646 442Z" fill="#212a2c"></path>
    <path d="M386.5 364.5C386.5 364.5 399.333 334.667 428 313.5C457 338 473.5 369.5 473.5 369.5C446 354 414 354 386.5 364.5Z" fill="#212a2c"></path>
    <ellipse cx="570" cy="570" rx="21" ry="16" transform="rotate(-7 573 575)" fill="#fa5e31"></ellipse>
    <ellipse cx="310" cy="490" rx="17" ry="14" transform="rotate(31 307 493)" fill="#fa5e31"></ellipse>
    <path d="M667.276 573C672.076 564.528 700.61 560.942 711.276 558L728.276 584.474C716.943 589.769 684.876 594.118 675.276 592C663.276 589.353 661.276 583.59 667.276 573Z" fill="#d6793e"></path>
    <path d="M689.276 615C694.076 606.528 722.61 602.942 733.276 600L750.276 626.474C738.943 631.769 706.876 636.118 697.276 634C685.276 631.353 683.276 625.59 689.276 615Z" fill="#d6793e"></path>
  </g>
  <line id="table" x1="0" y1="475" x2="1000" y2="710"></line>
  <g class="accTaiko">
    <mask id="topMask" mask-type="alpha" maskUnits="userSpaceOnUse" x="28" y="240" width="303" height="127"><rect x="41.0685" y="240.176" width="300" height="50" transform="rotate(15 41.0685 240.176)"></rect></mask>
    <mask id="bodyMask" mask-type="alpha" maskUnits="userSpaceOnUse" x="-147" y="283" width="485" height="670"><rect width="340" height="602" transform="matrix(0.965926 0.258819 0.258819 -0.965926 -147 864.784)"></rect></mask>
    <g mask="url(#bodyMask)"><ellipse class="body" cx="130.958" cy="484.258" rx="170" ry="347.5" transform="rotate(15 130.958 484.258)"></ellipse></g>
    <path
      class="rim"
      d="M315.973 365.601C314.413 371.423 309.306 376.33 300.693 380.029C292.106 383.717 280.356 386.052 266.198 386.902C237.903 388.6 200.453 384.34 160.593 373.66C120.733 362.979 86.1705 347.943 62.5159 332.325C50.6794 324.51 41.6715 316.613 36.0788 309.126C30.4689 301.616 28.4992 294.813 30.0594 288.99C31.6196 283.168 36.7267 278.261 45.3401 274.562C53.927 270.874 65.6768 268.539 79.835 267.689C108.129 265.991 145.58 270.251 185.44 280.931C225.3 291.612 259.862 306.648 283.517 322.266C295.354 330.081 304.361 337.978 309.954 345.465C315.564 352.975 317.534 359.778 315.973 365.601Z"
      stroke-width="4"
    ></path>
    <path
      class="rim"
      d="M300.278 346.901C299.262 350.694 295.375 354.013 288.09 356.41C280.899 358.777 270.933 360.052 258.826 360.153C234.643 360.355 202.392 355.872 167.84 346.614C133.288 337.356 103.116 325.112 82.2742 312.846C71.8405 306.705 63.8466 300.618 58.802 294.973C53.6915 289.254 51.9853 284.436 53.0014 280.644C54.0175 276.852 57.9044 273.532 65.1894 271.135C72.3805 268.768 82.3472 267.494 94.4534 267.392C118.637 267.19 150.887 271.673 185.44 280.931C219.992 290.189 250.163 302.433 271.006 314.699C281.439 320.84 289.433 326.928 294.478 332.572C299.588 338.291 301.295 343.109 300.278 346.901Z"
      stroke-width="4"
    ></path>
    <ellipse class="batter" cx="176.64" cy="313.773" rx="100" ry="21" transform="rotate(15 176.64 313.773)"></ellipse>
    <g mask="url(#bodyMask)">
      <path
        class="bodyOutline"
        d="M292.268 527.481C267.524 619.827 226.843 698.38 181.212 750.747C135.435 803.28 85.4176 828.709 41.7952 817.02C-1.82719 805.331 -32.4295 758.301 -45.8065 689.917C-59.1411 621.751 -55.0953 533.382 -30.3513 441.036C-5.6072 348.69 35.0736 270.137 80.7049 217.77C126.481 165.237 176.499 139.808 220.122 151.497C263.744 163.186 294.346 210.216 307.723 278.6C321.058 346.766 317.012 435.135 292.268 527.481Z"
        stroke-width="6"
      ></path>
    </g>
    <g mask="url(#topMask)">
      <path
        class="topOutline"
        d="M315.008 365.342C313.561 370.742 308.778 375.468 300.298 379.11C291.858 382.735 280.235 385.057 266.138 385.903C237.977 387.594 200.637 383.354 160.852 372.694C121.067 362.034 86.6098 347.035 63.0669 331.491C51.2816 323.709 42.3772 315.887 36.88 308.527C31.3569 301.133 29.5785 294.649 31.0254 289.249C32.4723 283.849 37.2547 279.123 45.7347 275.481C54.1751 271.856 65.798 269.534 79.8949 268.688C108.056 266.997 145.396 271.237 185.181 281.897C224.966 292.557 259.423 307.556 282.966 323.1C294.751 330.882 303.656 338.704 309.153 346.064C314.676 353.458 316.454 359.942 315.008 365.342Z"
        stroke-width="6"
      ></path>
    </g>
  </g>
  <g id="head" class="lineDraw">
    <path
      d="M4279 6752 c-21 -9 -302 -303 -338 -354 -14 -21 -32 -38 -39 -38 -29
        0 -292 -93 -376 -133 -230 -110 -582 -351 -830 -572 -38 -33 -74 -64 -82 -68
        -22 -12 -17 -33 11 -45 14 -6 25 -18 25 -27 0 -8 4 -15 9 -15 14 0 93 55 116
        80 32 36 211 181 338 273 241 176 455 293 672 367 83 28 161 54 175 56 14 3
        30 12 35 21 49 78 315 348 332 336 28 -19 227 -283 254 -336 36 -71 64 -89
        183 -118 102 -24 239 -74 396 -142 58 -25 211 -82 340 -127 258 -90 333 -125
        552 -253 174 -102 226 -129 295 -151 28 -10 63 -26 77 -37 37 -29 67 -24 200
        35 181 80 366 150 374 142 13 -13 14 -224 2 -314 -11 -83 -26 -134 -84 -285
        -15 -38 -31 -99 -37 -135 -6 -37 -14 -90 -19 -118 -4 -28 -15 -65 -24 -82 -9
        -17 -16 -50 -16 -72 0 -36 9 -54 64 -127 100 -133 266 -491 316 -679 12 -43
        28 -96 37 -116 15 -35 15 -76 1 -207 -3 -20 4 -25 42 -37 25 -8 46 -14 47 -14
        12 -1 31 69 36 128 5 65 2 88 -33 210 -73 260 -242 636 -346 771 l-56 74 17
        36 c10 20 21 61 25 91 23 155 34 200 74 303 64 163 71 204 70 422 0 212 -10
        269 -49 287 -21 9 -48 2 -182 -51 -87 -34 -211 -85 -275 -113 l-117 -50 -103
        41 c-57 23 -173 82 -258 132 -222 130 -348 189 -570 264 -107 37 -269 97 -360
        135 -198 82 -309 121 -410 145 -88 21 -93 24 -119 78 -19 38 -69 105 -226 298
        -67 82 -119 110 -166 91z"
    ></path>
  </g>
  <g id="face" class="lineDraw">
    <path
      d="M3515 5279 c-60 -53 -71 -164 -19 -216 19 -19 33 -23 88 -23 58 0 70
        3 96 28 39 34 55 97 40 152 -24 90 -133 122 -205 59z"
    ></path>
    <path
      d="M3905 5083 c-12 -12 -16 -27 -12 -53 7 -51 33 -87 81 -112 35 -18 53
        -20 144 -16 l103 5 15 -28 c35 -69 130 -105 243 -93 87 9 125 48 85 88 -18 18
        -23 19 -119 16 -85 -2 -120 19 -131 78 -14 83 -53 105 -111 64 -28 -19 -54
        -27 -99 -30 -71 -5 -104 8 -104 42 0 48 -62 73 -95 39z"
    ></path>
    <path
      d="M5245 4765 c-57 -20 -91 -63 -100 -123 -4 -28 -4 -60 0 -72 16 -50
        147 -70 199 -29 24 19 26 26 26 104 0 64 -4 87 -17 103 -24 29 -60 34 -108 17z"
    ></path>
  </g>
  <g id="lPawUp" class="lineDraw">
    <path
      class="pawBg"
      d="M5664 4914 c-49 -37 -101 -83 -116 -103 c-33 -47 -62 -143 -78 -258 c-23
        -166 1 -535 40 -639 c 0 0 888 586 888 586 c 23 0 21 34 -3 60 c -14 14 -25
        31 -25 37 c 0 6 -20 39 -44 74 c -23 35 -52 84 -63 110 c -24 55 -75 115 -116
        136 c-87 45 -169 63 -282 63 l -111 0 l -90 -66z"
    ></path>
    <path
      d="M5664 4914 c-49 -37 -101 -83 -116 -103 -33 -47 -62 -143 -78 -258
        -23 -166 1 -535 40 -639 6 -15 22 -24 62 -32 29 -5 55 -9 57 -6 2 2 -2 23 -8
        46 -43 152 -53 235 -54 423 -1 165 2 202 21 280 13 50 30 103 40 118 9 15 51
        52 92 82 l75 55 75 0 c54 0 95 -7 145 -25 81 -29 111 -49 143 -96 13 -19 32
        -38 43 -43 10 -5 19 -13 19 -17 0 -10 39 -70 82 -127 30 -40 73 -72 96 -72 23
        0 21 34 -3 60 -14 14 -25 31 -25 37 0 6 -20 39 -44 74 -23 35 -52 84 -63 110
        -24 55 -75 115 -116 136 -87 45 -169 63 -282 63 l-111 0 -90 -66z"
    ></path>
    <path
      class="toeBean"
      d="M5780 4750 c-41 -41 -40 -108 2 -128 79 -38 146 96 68 138 -28 15
        -48 12 -70 -10z"
    ></path>
    <path
      class="toeBean"
      d="M5985 4655 c-52 -51 -16 -105 68 -105 65 0 97 20 97 61 0 45 -31 69
        -90 69 -41 0 -56 -5 -75 -25z"
    ></path>
    <path
      class="toeBean"
      d="M5656 4519 c-14 -17 -26 -39 -26 -50 0 -28 44 -69 75 -69 33 0 75 44
        75 79 0 73 -76 97 -124 40z"
    ></path>
    <path
      class="toeBean"
      d="M5853 4510 c-32 -13 -43 -41 -43 -112 0 -80 15 -133 43 -153 43 -30
        115 -12 156 41 40 51 21 172 -33 207 -29 19 -96 28 -123 17z"
    ></path>
  </g>
  <g id="lPawDown" class="lineDraw">
    <path
      class="pawBg"
      d="M5291 4163 c-58 -60 -112 -131 -146 -192 c-16 -29 -20 -59 -23 -156
        c-4 -158 10 -189 116 -252 c90 -55 136 -63 349 -63 c150 0 170 2 255 28 c51
        16 120 36 153 44 c33 9 101 31 151 51 c49 19 106 38 125 41 c19 4 81 21 137
        38 c104 30 140 32 225 12 c28 -7 28 -6 21 32 c-3 22 -11 44 -16 49 c0 0 -1230
        413 -1230 413 c-26 26 -60 13 -117 -45z"
    ></path>
    <path
      d="M5291 4163 c-58 -60 -112 -131 -146 -192 -16 -29 -20 -59 -23 -156
        -4 -158 10 -189 116 -252 90 -55 136 -63 349 -63 150 0 170 2 255 28 51 16
        120 36 153 44 33 9 101 31 151 51 49 19 106 38 125 41 19 4 81 21 137 38 104
        30 140 32 225 12 28 -7 28 -6 21 32 -3 22 -11 44 -16 49 -5 6 -47 12 -93 13
        -114 5 -289 -37 -512 -124 -34 -13 -71 -24 -82 -24 -12 0 -63 -14 -115 -31
        -94 -30 -95 -31 -288 -27 l-193 3 -63 39 c-74 46 -86 75 -80 189 3 60 8 82 26
        104 35 44 76 107 75 114 -1 4 22 30 52 59 55 52 65 76 43 98 -26 26 -60 13
        -117 -45z"
    ></path>
    <path
      class="impact"
      d="M4840 3529 c-124 -38 -160 -79 -110 -129 25 -25 38 -25 129 0 78 22
        131 46 143 64 14 20 8 63 -10 79 -24 22 -39 21 -152 -14z"
    ></path>
    <path
      class="impact"
      d="M5039 3353 c-10 -11 -14 -44 -14 -105 0 -99 11 -118 67 -118 46 0 61
        36 56 130 -3 43 -10 86 -18 94 -17 21 -74 20 -91 -1z"
    ></path>
    <path
      class="impact"
      d="M5582 3327 c-29 -31 -28 -49 6 -88 15 -18 52 -69 82 -113 44 -65 61
        -82 83 -84 37 -4 67 23 67 59 0 57 -152 249 -198 249 -10 0 -28 -10 -40 -23z"
    ></path>
  </g>
  <g id="rPawUp" class="lineDraw">
    <path
      class="pawBg"
      d="M2083 5736 c-113 -83 -129 -106 -162 -226 c-54 -193 -49 -521 10 -747
        c0 0 891 620 891 620 c-11 12 -32 54 -47 92 c-33 82 -68 136 -137 211 c-41 43
        -66 60 -132 86 c-72 28 -95 32 -201 36 l-120 4 l-102 -76z"
    ></path>
    <path
      d="M2083 5736 c-113 -83 -129 -106 -162 -226 -54 -193 -49 -521 10 -747
        11 -40 14 -42 62 -53 27 -6 52 -8 55 -6 2 3 0 18 -6 33 -40 103 -66 493 -42
        641 20 127 46 198 83 227 133 102 138 105 204 105 124 0 287 -74 308 -139 3
        -10 17 -23 30 -29 14 -6 25 -16 25 -22 0 -27 98 -156 134 -177 46 -27 74 2 38
        40 -11 12 -32 54 -47 92 -33 82 -68 136 -137 211 -41 43 -66 60 -132 86 -72
        28 -95 32 -201 36 l-120 4 -102 -76z"
    ></path>
    <path
      class="toeBean"
      d="M2217 5589 c-20 -12 -47 -61 -47 -87 0 -23 40 -62 64 -62 10 0 31 13
        47 29 38 38 39 82 3 110 -30 23 -41 25 -67 10z"
    ></path>
    <path
      class="toeBean"
      d="M2422 5498 c-25 -13 -37 -46 -28 -82 18 -73 186 -48 186 28 0 53 -93
        85 -158 54z"
    ></path>
    <path
      class="toeBean"
      d="M2087 5352 c-32 -34 -35 -74 -7 -102 46 -46 120 -7 120 62 0 68 -65
        91 -113 40z"
    ></path>
    <path
      class="toeBean"
      d="M2256 5321 c-28 -31 -33 -124 -11 -191 13 -40 24 -55 50 -67 32 -15
        36 -15 82 8 68 34 91 81 75 158 -17 77 -45 103 -119 109 -50 3 -61 1 -77 -17z"
    ></path>
  </g>
  <g id="rPawDown" class="lineDraw">
    <path
      class="pawBg"
      d="M2521 5502 c-132 -117 -401 -395 -401 -414 c0 -8 -30 -46 -66 -84
        c-150 -157 -214 -256 -214 -327 c0 -12 3 -77 8 -144 c9 -145 15 -156 117 -220
        c92 -57 140 -65 358 -61 c164 3 190 6 267 30 c47 15 110 33 140 41 c30 8 91
        29 135 46 c44 17 123 42 175 55 c52 14 124 37 160 53 l65 30 l-53 26 c-61 31
        -79 33 -83 24 c0 0 -459 934 -459 934 c0 13 -58 69 -72 69 c-7 -1 -42 -27
        -77 -58z"
    ></path>
    <path
      d="M2521 5502 c-132 -117 -401 -395 -401 -414 0 -8 -30 -46 -66 -84
        -150 -157 -214 -256 -214 -327 0 -12 3 -77 8 -144 9 -145 15 -156 117 -220 92
        -57 140 -65 358 -61 164 3 190 6 267 30 47 15 110 33 140 41 30 8 91 29 135
        46 44 17 123 42 175 55 52 14 124 37 160 53 l65 30 -53 26 c-61 31 -79 33
        -119 13 -37 -19 -188 -66 -210 -66 -29 0 -310 -87 -335 -104 -38 -25 -161 -38
        -305 -31 -146 7 -180 14 -221 45 -15 11 -38 29 -52 40 -23 17 -25 25 -28 117
        -3 93 -2 100 24 138 15 22 33 59 41 81 8 23 43 77 78 120 35 44 79 99 97 123
        42 56 348 360 428 425 33 28 60 53 60 57 0 13 -58 69 -72 69 -7 -1 -42 -27
        -77 -58z"
    ></path>
    <path
      class="impact"
      d="M1640 4450 c-19 -11 -64 -29 -100 -41 -76 -25 -100 -43 -100 -76 0
        -25 32 -63 53 -63 41 0 215 69 252 100 21 17 19 63 -3 83 -24 22 -58 21 -102
        -3z"
    ></path>
    <path
      class="impact"
      d="M1718 4217 c-39 -17 -128 -105 -128 -127 0 -48 39 -78 83 -61 39 16
        127 107 127 133 0 46 -40 73 -82 55z"
    ></path>
    <path
      class="impact"
      d="M2197 4092 c-13 -15 -17 -39 -17 -114 0 -87 2 -96 24 -117 30 -29 68
        -23 92 15 14 20 16 41 12 108 -7 104 -18 126 -62 126 -19 0 -40 -8 -49 -18z"
    ></path>
  </g>
  <text id="description" x="500" y="100">Pikachu is playing Taiko no Tatsujin.</text>
  <g id="signature">
    <path
      d="m16 0c-8.995 0-16.288 7.293-16.288 16.29c0 7.197 4.667 13.302 11.14 15.457c.815.149 1.112-.354 1.112-.786c0-.386-.014-1.411-.022-2.77c-4.531.984-5.487-2.184-5.487-2.184c-.741-1.881-1.809-2.382-1.809-2.382c-1.479-1.011.112-.991.112-.991c1.635.116 2.495 1.679 2.495 1.679c1.453 2.489 3.813 1.77 4.741 1.354c.148-1.053.568-1.771 1.034-2.178c-3.617-.411-7.42-1.809-7.42-8.051c0-1.778.635-3.232 1.677-4.371c-.168-.412-.727-2.068.159-4.311c0 0 1.368-.438 4.48 1.67c1.299-.361 2.693-.542 4.078-.548c1.383.006 2.777.187 4.078.548c3.11-2.108 4.475-1.67 4.475-1.67c.889 2.243.33 3.899.162 4.311c1.044 1.139 1.675 2.593 1.675 4.371c0 6.258-3.809 7.635-7.438 8.038c.585.503 1.106 1.497 1.106 3.017c0 2.177-.02 3.934-.02 4.468c0 .436.293.943 1.12.784c6.468-2.159 11.131-8.26 11.131-15.455c0-8.997-7.294-16.29-16.291-16.29"
    ></path>
    <text x="40" y="20">lokshunhung</text>
  </g>
</svg>
