<svg width="1000" height="1000" viewBox="0 0 1000 1000" fill="none" xmlns="http://www.w3.org/2000/svg">
<g clip-path="url(#clip0)">
<rect width="1000" height="1000" fill="#CCCCCC"/>
<mask id="mask0" mask-type="alpha" maskUnits="userSpaceOnUse" x="188" y="324" width="549" height="324">
<path fill-rule="evenodd" clip-rule="evenodd" d="M735.275 647.79L188.93 519.399C192.4 514.029 197.795 507.56 205.4 499.6C209 495.8 212 492 212 491.2C212 489.3 238.9 461.5 252.1 449.8C255.6 446.7 259.1 444.1 259.8 444C259.939 444 260.12 444.055 260.335 444.155C259.707 443.144 260.03 442.047 261.4 441.3C262.2 440.9 265.8 437.8 269.6 434.5C294.4 412.4 329.6 388.3 352.6 377.3C361 373.3 387.3 364 390.2 364C390.9 364 392.7 362.3 394.1 360.2C397.7 355.1 425.8 325.7 427.9 324.8C432.6 322.9 437.8 325.7 444.5 333.9C460.2 353.2 465.2 359.9 467.1 363.7C469.7 369.1 470.2 369.4 479 371.5C489.1 373.9 500.2 377.8 520 386C529.1 389.8 545.3 395.8 556 399.5C578.2 407 590.8 412.9 613 425.9C621.5 430.9 633.1 436.8 638.8 439.1L649.1 443.2L660.8 438.2C667.2 435.4 679.6 430.3 688.3 426.9C701.7 421.6 704.4 420.9 706.5 421.8C710.4 423.6 711.4 429.3 711.4 450.5C711.5 472.3 710.8 476.4 704.4 492.7C700.4 503 699.3 507.5 697 523C696.6 526 695.5 530.1 694.5 532.1L692.8 535.7L698.4 543.1C708.8 556.6 725.7 594.2 733 620.2C736.5 632.4 736.8 634.7 736.3 641.2C736.115 643.385 735.738 645.72 735.275 647.79ZM262.82 445.95C262.987 446.035 263.148 446.128 263.302 446.228L263.218 446.303C263.085 446.183 262.952 446.065 262.82 445.95Z" fill="#C6C6C6"/>
</mask>
<g mask="url(#mask0)">
<path fill-rule="evenodd" clip-rule="evenodd" d="M735.275 647.79L188.93 519.399C192.4 514.029 197.795 507.56 205.4 499.6C209 495.8 212 492 212 491.2C212 489.3 238.9 461.5 252.1 449.8C255.6 446.7 259.1 444.1 259.8 444C259.939 444 260.12 444.055 260.335 444.155C259.707 443.144 260.03 442.047 261.4 441.3C262.2 440.9 265.8 437.8 269.6 434.5C294.4 412.4 329.6 388.3 352.6 377.3C361 373.3 387.3 364 390.2 364C390.9 364 392.7 362.3 394.1 360.2C397.7 355.1 425.8 325.7 427.9 324.8C432.6 322.9 437.8 325.7 444.5 333.9C460.2 353.2 465.2 359.9 467.1 363.7C469.7 369.1 470.2 369.4 479 371.5C489.1 373.9 500.2 377.8 520 386C529.1 389.8 545.3 395.8 556 399.5C578.2 407 590.8 412.9 613 425.9C621.5 430.9 633.1 436.8 638.8 439.1L649.1 443.2L660.8 438.2C667.2 435.4 679.6 430.3 688.3 426.9C701.7 421.6 704.4 420.9 706.5 421.8C710.4 423.6 711.4 429.3 711.4 450.5C711.5 472.3 710.8 476.4 704.4 492.7C700.4 503 699.3 507.5 697 523C696.6 526 695.5 530.1 694.5 532.1L692.8 535.7L698.4 543.1C708.8 556.6 725.7 594.2 733 620.2C736.5 632.4 736.8 634.7 736.3 641.2C736.115 643.385 735.738 645.72 735.275 647.79ZM262.82 445.95C262.987 446.035 263.148 446.128 263.302 446.228L263.218 446.303C263.085 446.183 262.952 446.065 262.82 445.95Z" fill="#FFDF4E"/>
<path d="M646 442C646 442 676 416.667 728 415C721.667 484.333 701 544 701 544C692 470 672 453 646 442Z" fill="#212A2C"/>
<path d="M386.5 364.5C386.5 364.5 399.333 334.667 428 313.5C457 338 473.5 369.5 473.5 369.5C446 354 414 354 386.5 364.5Z" fill="#212A2C"/>
<ellipse cx="572.851" cy="574.522" rx="21" ry="16" transform="rotate(-7.24918 572.851 574.522)" fill="#FA5E31"/>
<ellipse cx="307.123" cy="492.986" rx="17.2922" ry="14.1671" transform="rotate(31.0656 307.123 492.986)" fill="#FA5E31"/>
<path d="M667.276 573C672.076 564.528 700.61 560.942 711.276 558L728.276 584.474C716.943 589.769 684.876 594.118 675.276 592C663.276 589.353 661.276 583.59 667.276 573Z" fill="#D6793E"/>
<path d="M689.276 615C694.076 606.528 722.61 602.942 733.276 600L750.276 626.474C738.943 631.769 706.876 636.118 697.276 634C685.276 631.353 683.276 625.59 689.276 615Z" fill="#D6793E"/>
</g>
</g>
<defs>
<clipPath id="clip0">
<rect width="1000" height="1000" fill="white"/>
</clipPath>
</defs>
</svg>
