<svg width="1000" height="1000" viewBox="0 0 1000 1000" fill="none" xmlns="http://www.w3.org/2000/svg">
<g clip-path="url(#clip0)">
<rect width="1000" height="1000" fill="#CCCCCC"/>
<path d="M736 571L747.489 610L725.5 613L728.5 627L774 638L766.489 589.131H803.489L792.489 544.131L848.489 549.131C849.822 544.464 851.386 524.5 846.75 514.875C841.695 504.381 830.489 495.797 823.489 490.131L747.489 521.131L766.489 565.131L736 571Z" fill="#FFDF4E"/>
<path d="M728.5 627L774 638L770.244 613.565L768.367 601.348L758.5 588L755.5 596L750 588L744.617 600.25L747.489 610L725.5 613L728.5 627Z" fill="#9D5236"/>
<path d="M737.245 575.225L746.174 605.536C746.866 607.884 745.304 610.298 742.877 610.629L729.774 612.417C727.468 612.732 725.916 614.942 726.404 617.218L727.973 624.541C728.295 626.044 729.45 627.23 730.944 627.591L768.2 636.598C770.966 637.266 773.526 634.915 773.094 632.102L767.197 593.738C766.825 591.315 768.699 589.131 771.151 589.131H798.393C800.987 589.131 802.895 586.7 802.279 584.181L793.817 549.562C793.165 546.898 795.327 544.384 798.058 544.628L845.195 548.836C847.107 549.007 848.843 547.787 849.111 545.887C850.161 538.431 850.656 522.984 846.75 514.875C842.118 505.259 832.32 497.246 825.328 491.613C824.192 490.698 822.65 490.473 821.299 491.024L751.269 519.589C749.194 520.435 748.219 522.821 749.107 524.878L764.515 560.558C765.528 562.906 764.109 565.589 761.598 566.072L740.326 570.167C738.007 570.614 736.578 572.961 737.245 575.225Z" stroke="black" stroke-width="10"/>
</g>
<defs>
<clipPath id="clip0">
<rect width="1000" height="1000" fill="white"/>
</clipPath>
</defs>
</svg>
