<?xml version="1.0" standalone="no"?>
<!DOCTYPE svg PUBLIC "-//W3C//DTD SVG 20010904//EN"
 "http://www.w3.org/TR/2001/REC-SVG-20010904/DTD/svg10.dtd">
<svg version="1.0" xmlns="http://www.w3.org/2000/svg"
 width="1000.000000pt" height="1000.000000pt" viewBox="0 0 1000.000000 1000.000000"
 preserveAspectRatio="xMidYMid meet">

<g transform="translate(0.000000,1000.000000) scale(0.100000,-0.100000)"
fill="#000000" stroke="none">
<path d="M5291 4163 c-58 -60 -112 -131 -146 -192 -16 -29 -20 -59 -23 -156
-4 -158 10 -189 116 -252 90 -55 136 -63 349 -63 150 0 170 2 255 28 51 16
120 36 153 44 33 9 101 31 151 51 49 19 106 38 125 41 19 4 81 21 137 38 104
30 140 32 225 12 28 -7 28 -6 21 32 -3 22 -11 44 -16 49 -5 6 -47 12 -93 13
-114 5 -289 -37 -512 -124 -34 -13 -71 -24 -82 -24 -12 0 -63 -14 -115 -31
-94 -30 -95 -31 -288 -27 l-193 3 -63 39 c-74 46 -86 75 -80 189 3 60 8 82 26
104 35 44 76 107 75 114 -1 4 22 30 52 59 55 52 65 76 43 98 -26 26 -60 13
-117 -45z"/>
<path d="M4840 3529 c-124 -38 -160 -79 -110 -129 25 -25 38 -25 129 0 78 22
131 46 143 64 14 20 8 63 -10 79 -24 22 -39 21 -152 -14z"/>
<path d="M5039 3353 c-10 -11 -14 -44 -14 -105 0 -99 11 -118 67 -118 46 0 61
36 56 130 -3 43 -10 86 -18 94 -17 21 -74 20 -91 -1z"/>
<path d="M5582 3327 c-29 -31 -28 -49 6 -88 15 -18 52 -69 82 -113 44 -65 61
-82 83 -84 37 -4 67 23 67 59 0 57 -152 249 -198 249 -10 0 -28 -10 -40 -23z"/>
</g>
</svg>
